<svg xmlns="http://www.w3.org/2000/svg" xmlns:xlink="http://www.w3.org/1999/xlink" width="171.78" height="55.27" viewBox="0 0 171.78 55.27"><defs><style>.cls-1{fill:#d1daea;}.cls-2{fill:url(#radial-gradient);}.cls-3{fill:#fff;}.cls-4{fill:#e7edf7;}.cls-5{fill:#fddfd2;}.cls-6{fill:#175079;}.cls-7{fill:#f26327;}.cls-8{fill:#f5814e;}.cls-9{fill:#f8a07b;}.cls-10{fill:#d2dce4;}</style><radialGradient id="radial-gradient" cx="-422.11" cy="412.13" r="1" gradientTransform="matrix(207.79, 0, 0, -207.79, 87877.54, 85620.29)" gradientUnits="userSpaceOnUse"><stop offset="0" stop-color="#a11d22"/><stop offset="1" stop-color="#f0515b"/></radialGradient></defs><title>grammar</title><g id="Layer_2" data-name="Layer 2"><g id="Layer_1-2" data-name="Layer 1"><path class="cls-1" d="M145,55.27H26.81a26.81,26.81,0,0,1,0-53.62H145a26.81,26.81,0,1,1,0,53.62Z"/><path class="cls-2" d="M171.77,26.81A26.81,26.81,0,0,1,145,53.62H26.81A26.81,26.81,0,0,1,26.81,0H145A26.81,26.81,0,0,1,171.77,26.81Z"/><path class="cls-3" d="M67.46,21.76a7.41,7.41,0,0,0,5-1.92v1.74h1.46V14.36H72.46v3.22a5.91,5.91,0,1,1-5-9,6,6,0,0,1,4.74,2.28h1.64A7.41,7.41,0,0,0,60,14.36,7.45,7.45,0,0,0,67.46,21.76Zm10.6-9H76.72v8.8h1.34V16.72A2.76,2.76,0,0,1,81,14V12.64a3.91,3.91,0,0,0-3,1.34Zm8.63,9A4.28,4.28,0,0,0,90,20.18v1.44h1.34V12.78H90v1.44a4.31,4.31,0,0,0-3.32-1.58,4.58,4.58,0,0,0-4.56,4.56A4.64,4.64,0,0,0,86.69,21.8Zm0-1.32a3.21,3.21,0,0,1-3.12-3.28A3.15,3.15,0,0,1,86.65,14a3.31,3.31,0,0,1,3.28,3.24A3.38,3.38,0,0,1,86.65,20.48ZM104,12.64a3.29,3.29,0,0,0-3,1.7c-.46-1.2-1.42-1.7-3-1.7a3.34,3.34,0,0,0-2.64,1.2V12.78H94.06v8.8H95.4V17c0-2.14,1-3,2.64-3,1.3,0,2,.86,2,2.6v5h1.34V17c0-2.14,1-3,2.64-3,1.3,0,2,.86,2,2.6v5h1.34v-5C107.28,13.76,106.26,12.64,104,12.64Zm15.82,0a3.29,3.29,0,0,0-3,1.7c-.46-1.2-1.42-1.7-3-1.7a3.34,3.34,0,0,0-2.64,1.2V12.78h-1.34v8.8h1.34V17c0-2.14,1-3,2.64-3,1.3,0,2,.86,2,2.6v5h1.34V17c0-2.14,1-3,2.64-3,1.3,0,2,.86,2,2.6v5h1.34v-5C123.1,13.76,122.08,12.64,119.8,12.64Zm9.86,9.16A4.28,4.28,0,0,0,133,20.18v1.44h1.34V12.78H133v1.44a4.31,4.31,0,0,0-3.32-1.58,4.58,4.58,0,0,0-4.56,4.56A4.64,4.64,0,0,0,129.66,21.8Zm0-1.32a3.21,3.21,0,0,1-3.12-3.28A3.15,3.15,0,0,1,129.62,14a3.31,3.31,0,0,1,3.28,3.24A3.38,3.38,0,0,1,129.62,20.48Zm8.85-7.7h-1.34v8.8h1.34V16.72a2.76,2.76,0,0,1,3-2.76V12.64a3.91,3.91,0,0,0-3,1.34Zm14.67,3c-2-2.62-2.74-4-2.54-5.4a2,2,0,0,1,1.62-1.84,2,2,0,0,1,2.28,1.18,3.62,3.62,0,0,1,.14,1.44h1.52a4.43,4.43,0,0,0-.24-2c-.66-1.68-2.46-2.24-4.3-1.86a3.35,3.35,0,0,0-2.5,3.1,5.8,5.8,0,0,0,.94,3.64,4.72,4.72,0,0,0-1.76,5.18c.86,2.36,3.86,3.62,6.88,1.56l.7.84h1.84l-1.44-1.84a9.57,9.57,0,0,0,1.66-3.06h-1.52a8.27,8.27,0,0,1-1,2C154.62,17.62,153.78,16.62,153.14,15.78Zm1.16,3.88c-2.18,1.46-4.14.6-4.7-1a3.26,3.26,0,0,1,1.22-3.56c.34.5.72,1,1.14,1.58C152.64,17.6,153.46,18.62,154.3,19.66Z"/><path class="cls-3" d="M63.68,45.58h1.46l4.06-12.1,4,12.1H74.7L79.48,31.3H78L74,43.4,69.92,31.3H68.46l-4,12.1L60.36,31.3H58.9Zm18-8.8H80.37v8.8h1.34V40.72a2.76,2.76,0,0,1,3-2.76V36.64a3.91,3.91,0,0,0-3,1.34ZM87.24,35a.94.94,0,1,0-1-1A1,1,0,0,0,87.24,35Zm-.68,10.58H88v-8.8h-1.4ZM94.62,38V36.78h-2V33.32H91.3v3.46H90V38H91.3v7.58h1.34V38Zm2.57-3a.94.94,0,1,0-1-1A1,1,0,0,0,97.19,35Zm-.68,10.58h1.4v-8.8h-1.4Zm4.21,0h1.34V40.9A2.6,2.6,0,0,1,104.94,38c1.46,0,2.26.86,2.26,2.6v5h1.34v-5c0-2.8-1.08-3.92-3.6-3.92a3.79,3.79,0,0,0-2.88,1.2V36.78h-1.34Zm17.67-8.8v1.34a4.3,4.3,0,0,0-3.28-1.56,4.64,4.64,0,0,0-4.56,4.6,4.58,4.58,0,0,0,4.56,4.56,4.33,4.33,0,0,0,3.28-1.52v.58c0,2.74-1.38,3.68-3.16,3.68a3.17,3.17,0,0,1-2.78-1.72h-1.52a4.55,4.55,0,0,0,4.3,3c2.5,0,4.56-1.54,4.56-5v-8Zm-3.32,7.62A3.15,3.15,0,0,1,112,41.16a3.21,3.21,0,0,1,3.12-3.28,3.38,3.38,0,0,1,3.28,3.28A3.31,3.31,0,0,1,115.07,44.4Z"/><path class="cls-4" d="M27.84,5.75A21.71,21.71,0,1,0,49.55,27.46,21.72,21.72,0,0,0,27.84,5.75Z"/><path class="cls-4" d="M27.84,47.47a20,20,0,1,1,20-20A20,20,0,0,1,27.84,47.47Z"/><path class="cls-5" d="M18.55,31.41l2.12,5.9a.47.47,0,0,0,.53.3l6.17-1.13L28.8,34,20,28.92Z"/><path class="cls-6" d="M22.38,35a2.64,2.64,0,0,0-2.54,0l.83,2.34a.47.47,0,0,0,.53.3l2.43-.45A2.61,2.61,0,0,0,22.38,35Z"/><path class="cls-7" d="M22.22,31l-3.67.42,7.69-13.29,2.55,1.47Z"/><path class="cls-8" d="M25.91,33.12,23,34l-.75-3,6.57-11.4,3.7,2.13Z"/><path class="cls-9" d="M27.37,36.51l-1.46-3.39,6.58-11.4,2.57,1.49Z"/><path class="cls-10" d="M27,16.84l-.74,1.28,8.82,5.09.74-1.28Z"/><path class="cls-6" d="M36.68,18.63l-7.3-4.21a.87.87,0,0,0-1.2.33L27,16.84l8.82,5.09L37,19.82A.86.86,0,0,0,36.68,18.63Z"/></g></g></svg>