<svg xmlns="http://www.w3.org/2000/svg" width="171.81" height="55.26" viewBox="0 0 171.81 55.26"><defs><style>.cls-1{fill:#d1daea;}.cls-2{fill:url(#radial-gradient);}.cls-3{fill:#fff;}.cls-4{fill:#e7edf7;}.cls-5{fill:#128995;}.cls-6{fill:#edf8fa;}.cls-7{fill:#fcc015;}.cls-8{fill:#a6dce4;}.cls-9{fill:#010101;opacity:0.2;isolation:isolate;}</style><radialGradient id="radial-gradient" cx="-843.3" cy="5.97" r="1" gradientTransform="translate(175397.57 -1256.41) scale(207.79)" gradientUnits="userSpaceOnUse"><stop offset="0" stop-color="#a11d22"/><stop offset="1" stop-color="#f0515b"/></radialGradient></defs><title>reading1</title><g id="Layer_2" data-name="Layer 2"><g id="Layer_1-2" data-name="Layer 1"><g id="Layer_2-2" data-name="Layer 2"><g id="Layer_1-2-2" data-name="Layer 1-2"><path class="cls-1" d="M145,55.26H26.81a26.81,26.81,0,0,1,0-53.62H145a26.81,26.81,0,1,1,0,53.62Z"/><path class="cls-2" d="M171.77,26.81A26.81,26.81,0,0,1,145,53.62H26.81A26.81,26.81,0,0,1,26.81,0H145A26.81,26.81,0,0,1,171.77,26.81Z"/><path class="cls-3" d="M58.16,33.42h1.68V27.21H62.9l4.9,6.21H70l-5-6.37a4.78,4.78,0,0,0,3.78-4.94A4.91,4.91,0,0,0,64.09,17H58.16Zm1.68-7.82v-7h3.7A3.3,3.3,0,0,1,67,21.69a2.8,2.8,0,0,1,0,.41,3.3,3.3,0,0,1-3.12,3.49,2.41,2.41,0,0,1-.38,0Zm21.72,2.79a5.25,5.25,0,0,0-10.49-.46,3.53,3.53,0,0,0,0,.46,5.35,5.35,0,0,0,5.25,5.29A5.26,5.26,0,0,0,81,30.75H79.12a3.54,3.54,0,0,1-2.8,1.41,3.71,3.71,0,0,1-3.57-3.06h8.81Zm-5.24-3.73a3.67,3.67,0,0,1,3.56,3H72.75A3.65,3.65,0,0,1,76.32,24.66Zm12.1,9a4.91,4.91,0,0,0,3.82-1.87v1.66h1.54V23.3H92.24V25a4.94,4.94,0,0,0-3.82-1.82,5.27,5.27,0,0,0-5.24,5.25,5.35,5.35,0,0,0,5.24,5.25Zm0-1.52a3.69,3.69,0,0,1-3.59-3.77,3.63,3.63,0,0,1,3.53-3.73h.06a3.8,3.8,0,0,1,3.77,3.73,3.88,3.88,0,0,1-3.81,3.79Zm17,1.26H107V17h-1.54v8a4.9,4.9,0,0,0-3.81-1.82,5.29,5.29,0,0,0-5.25,5.25,5.35,5.35,0,0,0,5.25,5.29,4.89,4.89,0,0,0,3.81-1.87Zm-3.86-1.26A3.69,3.69,0,0,1,98,28.37a3.63,3.63,0,0,1,3.53-3.73h.06a3.8,3.8,0,0,1,3.77,3.73,3.88,3.88,0,0,1-3.81,3.79ZM111,21.24a1.09,1.09,0,1,0-1.1-1.11,1.09,1.09,0,0,0,1.1,1.11Zm-.78,12.16h1.61V23.3h-1.61Zm4.85,0h1.54V28c0-2.28,1.27-3.43,3.31-3.38,1.68,0,2.6,1,2.6,3v5.77H124V27.65c0-3.22-1.24-4.51-4.14-4.51a4.4,4.4,0,0,0-3.31,1.38V23.3H115ZM135.3,23.3v1.54a5,5,0,0,0-3.77-1.79,5.35,5.35,0,0,0-5.25,5.29,5.27,5.27,0,0,0,5.25,5.24,5,5,0,0,0,3.77-1.74v.66c0,3.15-1.59,4.23-3.63,4.23a3.64,3.64,0,0,1-3.2-2h-1.75a5.24,5.24,0,0,0,4.95,3.49c2.87,0,5.24-1.77,5.24-5.75V23.3Zm-3.82,8.77a3.63,3.63,0,0,1-3.59-3.67v-.06a3.7,3.7,0,0,1,3.59-3.77,3.88,3.88,0,0,1,3.77,3.77A3.8,3.8,0,0,1,131.48,32.07Zm16.59,1.35h1.61V17h-3.45v1.5l1.84.11Z"/><path class="cls-4" d="M27.78,4.77A21.71,21.71,0,1,0,49.49,26.48,21.71,21.71,0,0,0,27.78,4.77Z"/><path class="cls-4" d="M27.78,46.49a20,20,0,1,1,20-20h0A20,20,0,0,1,27.78,46.49Z"/><path class="cls-5" d="M28.85,16.94H12.7V37.22H41.83V16.94Z"/><path class="cls-6" d="M40.23,35.34a18,18,0,0,0-13,0V17a18,18,0,0,1,13,0Z"/><path class="cls-7" d="M38.34,18.41h-.07a17.61,17.61,0,0,0-9.06,0,.26.26,0,0,1-.32-.18h0a.25.25,0,0,1,.16-.31h0a18.44,18.44,0,0,1,9.33,0,.25.25,0,0,1,.19.31h0A.28.28,0,0,1,38.34,18.41Z"/><path class="cls-7" d="M38.34,20.52h-.07a17.83,17.83,0,0,0-9.06,0,.26.26,0,0,1-.32-.18h0a.25.25,0,0,1,.16-.31h0a18.44,18.44,0,0,1,9.33,0,.25.25,0,0,1,.19.31h0A.26.26,0,0,1,38.34,20.52Z"/><path class="cls-7" d="M38.34,22.63h-.07a17.61,17.61,0,0,0-9.06,0,.26.26,0,0,1-.32-.18h0a.25.25,0,0,1,.16-.31h0a18.44,18.44,0,0,1,9.33,0,.25.25,0,0,1,.19.31h0A.28.28,0,0,1,38.34,22.63Z"/><path class="cls-7" d="M38.34,24.74h-.07a17.83,17.83,0,0,0-9.06,0,.26.26,0,0,1-.32-.18h0a.25.25,0,0,1,.16-.31h0a18.44,18.44,0,0,1,9.33,0,.25.25,0,0,1,.19.31h0A.28.28,0,0,1,38.34,24.74Z"/><path class="cls-7" d="M29.15,26.84a.26.26,0,0,1-.09-.51h0a18.44,18.44,0,0,1,9.33,0,.25.25,0,0,1,.19.31h0a.25.25,0,0,1-.29.2h0a17.61,17.61,0,0,0-9.06,0Z"/><path class="cls-7" d="M29.15,29a.26.26,0,0,1-.09-.51h0a18.44,18.44,0,0,1,9.33,0,.26.26,0,1,1-.13.51,17.83,17.83,0,0,0-9.06,0Z"/><path class="cls-7" d="M38.34,31.06h-.07a17.83,17.83,0,0,0-9.06,0,.26.26,0,0,1-.32-.18h0a.25.25,0,0,1,.16-.31h0a18.44,18.44,0,0,1,9.33,0,.25.25,0,0,1,.19.31h0A.28.28,0,0,1,38.34,31.06Z"/><path class="cls-7" d="M29.15,33.17a.26.26,0,0,1-.09-.51h0a18.44,18.44,0,0,1,9.33,0,.26.26,0,0,1-.13.51,17.83,17.83,0,0,0-9.06,0Z"/><path class="cls-6" d="M27.27,35.34a18,18,0,0,0-13,0V17a18,18,0,0,1,13,0Z"/><path class="cls-7" d="M25.38,18.41h-.07a17.61,17.61,0,0,0-9.06,0,.26.26,0,1,1-.13-.51h0a18.44,18.44,0,0,1,9.33,0,.25.25,0,0,1,.19.31h0A.28.28,0,0,1,25.38,18.41Z"/><path class="cls-7" d="M16.19,20.52a.25.25,0,0,1-.25-.2.26.26,0,0,1,.18-.32h0a18.44,18.44,0,0,1,9.33,0,.26.26,0,0,1-.13.51h0a17.83,17.83,0,0,0-9.06,0Z"/><path class="cls-7" d="M25.38,22.63h-.07a17.61,17.61,0,0,0-9.06,0,.26.26,0,0,1-.13-.51h0a18.44,18.44,0,0,1,9.33,0,.25.25,0,0,1,.19.31h0A.28.28,0,0,1,25.38,22.63Z"/><path class="cls-7" d="M16.19,24.74a.25.25,0,0,1-.25-.2.26.26,0,0,1,.18-.32h0a18.44,18.44,0,0,1,9.33,0,.26.26,0,0,1-.13.51h0a17.83,17.83,0,0,0-9.06,0Z"/><path class="cls-7" d="M25.38,26.84h-.07a17.61,17.61,0,0,0-9.06,0,.26.26,0,1,1-.13-.51h0a18.44,18.44,0,0,1,9.33,0,.25.25,0,0,1,.19.31h0A.28.28,0,0,1,25.38,26.84Z"/><path class="cls-7" d="M16.19,29a.25.25,0,0,1-.25-.2.26.26,0,0,1,.18-.32h0a18.44,18.44,0,0,1,9.33,0,.26.26,0,0,1-.13.51h0a17.83,17.83,0,0,0-9.06,0Z"/><path class="cls-7" d="M16.19,31.06a.25.25,0,0,1-.25-.2.26.26,0,0,1,.18-.32h0a18.44,18.44,0,0,1,9.33,0,.26.26,0,0,1-.13.51,17.83,17.83,0,0,0-9.06,0Z"/><path class="cls-7" d="M16.19,33.17a.25.25,0,0,1-.25-.2.26.26,0,0,1,.18-.32h0a18.44,18.44,0,0,1,9.33,0,.26.26,0,0,1-.13.51,17.83,17.83,0,0,0-9.06,0Z"/><path class="cls-8" d="M14.3,35.34h13A18,18,0,0,0,14.3,35.34Z"/><path class="cls-8" d="M27.27,35.34h13A18,18,0,0,0,27.27,35.34Z"/><path class="cls-9" d="M40.23,16.94V35.33H14.28l.88.88H41.1V17.82Z"/><path class="cls-9" d="M27.27,35.34v-.79c0-.51-.07-1.22-.08-2.08s0-1.86-.07-2.95,0-2.23,0-3.38V22.76c0-1.07.05-2.08.07-3s.07-1.58.08-2.08,0-.79,0-.79v.79c0,.51.07,1.22.08,2.08s0,1.86.07,3,0,2.23,0,3.38v3.38c0,1.07-.05,2.08-.07,2.95s-.07,1.58-.08,2.08S27.27,35.34,27.27,35.34Z"/></g></g></g></g></svg>