<svg xmlns="http://www.w3.org/2000/svg" xmlns:xlink="http://www.w3.org/1999/xlink" width="171.78" height="55.27" viewBox="0 0 171.78 55.27"><defs><style>.cls-1{fill:#d1daea;}.cls-2{fill:url(#radial-gradient);}.cls-3{fill:#fff;}.cls-4{fill:#e7edf7;}.cls-5{fill:#128995;}.cls-6{fill:#edf8fa;}.cls-7{fill:#fcc015;}.cls-8{fill:#a6dce4;}.cls-9{fill:#010101;opacity:0.2;isolation:isolate;}</style><radialGradient id="radial-gradient" cx="-423.3" cy="412.29" r="1" gradientTransform="matrix(207.79, 0, 0, -207.79, 88124.81, 85653.54)" gradientUnits="userSpaceOnUse"><stop offset="0" stop-color="#a11d22"/><stop offset="1" stop-color="#f0515b"/></radialGradient></defs><title>reading2</title><g id="Layer_2" data-name="Layer 2"><g id="Layer_1-2" data-name="Layer 1"><path class="cls-1" d="M145,55.27H26.81a26.81,26.81,0,0,1,0-53.62H145a26.81,26.81,0,1,1,0,53.62Z"/><path class="cls-2" d="M171.77,26.81A26.81,26.81,0,0,1,145,53.62H26.81A26.81,26.81,0,0,1,26.81,0H145A26.81,26.81,0,0,1,171.77,26.81Z"/><path class="cls-3" d="M58.16,33.43h1.68V27.22H62.9l4.89,6.21H70l-5-6.37a4.79,4.79,0,0,0,3.77-4.95A4.9,4.9,0,0,0,63.54,17H58.16Zm1.68-7.82v-7h3.7A3.29,3.29,0,0,1,67,22.11a3.31,3.31,0,0,1-3.5,3.5Zm21.72,2.78a5.25,5.25,0,0,0-10.49,0,5.34,5.34,0,0,0,5.24,5.29A5.24,5.24,0,0,0,81,30.76H79.12a3.53,3.53,0,0,1-2.81,1.41,3.72,3.72,0,0,1-3.56-3.06h8.81Zm-5.25-3.72a3.67,3.67,0,0,1,3.57,3H72.75A3.65,3.65,0,0,1,76.31,24.67Zm12.11,9a4.91,4.91,0,0,0,3.82-1.86v1.66h1.54V23.31H92.24V25a4.94,4.94,0,0,0-3.82-1.82,5.27,5.27,0,0,0-5.24,5.24A5.34,5.34,0,0,0,88.42,33.68Zm0-1.51a3.7,3.7,0,0,1-3.58-3.78,3.62,3.62,0,0,1,3.58-3.72,3.81,3.81,0,0,1,3.78,3.72A3.89,3.89,0,0,1,88.37,32.17Zm17,1.26h1.54V17h-1.54v8a4.94,4.94,0,0,0-3.82-1.82,5.27,5.27,0,0,0-5.24,5.24,5.34,5.34,0,0,0,5.24,5.29,4.91,4.91,0,0,0,3.82-1.86Zm-3.86-1.26a3.7,3.7,0,0,1-3.59-3.78,3.62,3.62,0,0,1,3.59-3.72,3.81,3.81,0,0,1,3.77,3.72A3.89,3.89,0,0,1,101.52,32.17Zm9.39-10.91a1.09,1.09,0,0,0,1.08-1.1,1.09,1.09,0,0,0-2.18,0A1.08,1.08,0,0,0,110.91,21.26Zm-.78,12.17h1.61V23.31h-1.61Zm4.85,0h1.54V28.05c0-2.28,1.26-3.43,3.31-3.38,1.68,0,2.6,1,2.6,3v5.77H124V27.66c0-3.22-1.24-4.51-4.14-4.51a4.33,4.33,0,0,0-3.31,1.38V23.31H115ZM135.3,23.31v1.54a5,5,0,0,0-3.77-1.79,5.34,5.34,0,0,0-5.25,5.29,5.27,5.27,0,0,0,5.25,5.24,5,5,0,0,0,3.77-1.75v.67c0,3.15-1.59,4.23-3.64,4.23a3.64,3.64,0,0,1-3.19-2h-1.75a5.23,5.23,0,0,0,4.94,3.5c2.88,0,5.25-1.77,5.25-5.75v-9.2Zm-3.82,8.76a3.62,3.62,0,0,1-3.59-3.72,3.69,3.69,0,0,1,3.59-3.77,3.88,3.88,0,0,1,3.77,3.77A3.81,3.81,0,0,1,131.48,32.07Zm14.75,1.36h10V31.82h-8.12v-.71c0-4.12,8.22-4.12,8.22-9.46a4.66,4.66,0,0,0-5-5,4.73,4.73,0,0,0-5,5h1.75a3.13,3.13,0,0,1,3.29-3.33,3,3,0,0,1,3.15,3.33c0,3.94-8.28,3.94-8.28,9.46Z"/><path class="cls-4" d="M29.92,5.07A21.71,21.71,0,1,0,51.63,26.78,21.72,21.72,0,0,0,29.92,5.07Z"/><path class="cls-4" d="M29.92,46.79a20,20,0,1,1,20-20A20,20,0,0,1,29.92,46.79Z"/><path class="cls-5" d="M31,17.24H14.84V37.52H44V17.24Z"/><path class="cls-6" d="M42.38,35.64a18,18,0,0,0-13,0V17.25a18,18,0,0,1,13,0Z"/><path class="cls-7" d="M40.49,18.71h-.07a17.61,17.61,0,0,0-9.06,0,.26.26,0,0,1-.32-.19.25.25,0,0,1,.19-.32,18.44,18.44,0,0,1,9.33,0,.26.26,0,0,1,.19.32A.28.28,0,0,1,40.49,18.71Z"/><path class="cls-7" d="M40.49,20.82h-.07a17.83,17.83,0,0,0-9.06,0,.26.26,0,0,1-.32-.19.25.25,0,0,1,.19-.32,18.44,18.44,0,0,1,9.33,0,.26.26,0,0,1,.19.32A.26.26,0,0,1,40.49,20.82Z"/><path class="cls-7" d="M40.49,22.93h-.07a17.61,17.61,0,0,0-9.06,0,.26.26,0,0,1-.32-.19.25.25,0,0,1,.19-.32,18.44,18.44,0,0,1,9.33,0,.26.26,0,0,1,.19.32A.28.28,0,0,1,40.49,22.93Z"/><path class="cls-7" d="M40.49,25h-.07a17.83,17.83,0,0,0-9.06,0,.26.26,0,0,1-.32-.19.25.25,0,0,1,.19-.32,18.44,18.44,0,0,1,9.33,0,.26.26,0,0,1,.19.32A.28.28,0,0,1,40.49,25Z"/><path class="cls-7" d="M31.29,27.14a.25.25,0,0,1-.25-.2.25.25,0,0,1,.19-.32,18.44,18.44,0,0,1,9.33,0,.26.26,0,0,1,.19.32.25.25,0,0,1-.32.19,17.61,17.61,0,0,0-9.06,0Z"/><path class="cls-7" d="M31.29,29.25a.25.25,0,0,1-.25-.2.25.25,0,0,1,.19-.32,18.44,18.44,0,0,1,9.33,0,.26.26,0,1,1-.13.51,17.83,17.83,0,0,0-9.06,0Z"/><path class="cls-7" d="M40.49,31.37h-.07a17.83,17.83,0,0,0-9.06,0,.26.26,0,0,1-.32-.19.25.25,0,0,1,.19-.32,18.44,18.44,0,0,1,9.33,0,.26.26,0,0,1,.19.32A.29.29,0,0,1,40.49,31.37Z"/><path class="cls-7" d="M31.29,33.47a.25.25,0,0,1-.25-.2.25.25,0,0,1,.19-.32,18.44,18.44,0,0,1,9.33,0,.26.26,0,1,1-.13.51,17.83,17.83,0,0,0-9.06,0Z"/><path class="cls-6" d="M29.42,35.64a18,18,0,0,0-13,0V17.25a18,18,0,0,1,13,0Z"/><path class="cls-7" d="M27.53,18.71h-.07a17.61,17.61,0,0,0-9.06,0,.26.26,0,0,1-.13-.51,18.44,18.44,0,0,1,9.33,0,.26.26,0,0,1,.19.32A.29.29,0,0,1,27.53,18.71Z"/><path class="cls-7" d="M18.33,20.82a.25.25,0,0,1-.25-.2.26.26,0,0,1,.19-.32,18.44,18.44,0,0,1,9.33,0,.26.26,0,0,1-.13.51,17.83,17.83,0,0,0-9.06,0Z"/><path class="cls-7" d="M27.53,22.93h-.07a17.61,17.61,0,0,0-9.06,0,.26.26,0,1,1-.13-.51,18.44,18.44,0,0,1,9.33,0,.26.26,0,0,1,.19.32A.29.29,0,0,1,27.53,22.93Z"/><path class="cls-7" d="M18.33,25a.25.25,0,0,1-.25-.2.26.26,0,0,1,.19-.32,18.44,18.44,0,0,1,9.33,0,.26.26,0,0,1-.13.51,17.83,17.83,0,0,0-9.06,0Z"/><path class="cls-7" d="M27.53,27.14h-.07a17.61,17.61,0,0,0-9.06,0,.26.26,0,0,1-.13-.51,18.44,18.44,0,0,1,9.33,0,.26.26,0,0,1,.19.32A.29.29,0,0,1,27.53,27.14Z"/><path class="cls-7" d="M18.33,29.25a.25.25,0,0,1-.25-.2.26.26,0,0,1,.19-.32,18.44,18.44,0,0,1,9.33,0,.26.26,0,0,1-.13.51,17.83,17.83,0,0,0-9.06,0Z"/><path class="cls-7" d="M18.33,31.37a.25.25,0,0,1-.25-.2.26.26,0,0,1,.19-.32,18.44,18.44,0,0,1,9.33,0,.26.26,0,0,1-.13.51,17.83,17.83,0,0,0-9.06,0S18.36,31.37,18.33,31.37Z"/><path class="cls-7" d="M18.33,33.47a.25.25,0,0,1-.25-.2.26.26,0,0,1,.19-.32,18.44,18.44,0,0,1,9.33,0,.26.26,0,0,1-.13.51,17.83,17.83,0,0,0-9.06,0Z"/><path class="cls-8" d="M16.44,35.64h13A18,18,0,0,0,16.44,35.64Z"/><path class="cls-8" d="M29.42,35.64h13A18,18,0,0,0,29.42,35.64Z"/><path class="cls-9" d="M42.38,17.24V35.63H16.43l.88.88H43.25V18.12Z"/><path class="cls-9" d="M29.42,35.64s0-.28,0-.79-.07-1.22-.08-2.08-.05-1.86-.07-3,0-2.23,0-3.38,0-2.31,0-3.38.05-2.08.07-2.95.07-1.58.08-2.08,0-.79,0-.79,0,.28,0,.79.07,1.22.08,2.08.05,1.86.07,2.95,0,2.23,0,3.38,0,2.31,0,3.38-.05,2.08-.07,3-.07,1.58-.08,2.08S29.42,35.64,29.42,35.64Z"/></g></g></svg>