<svg xmlns="http://www.w3.org/2000/svg" xmlns:xlink="http://www.w3.org/1999/xlink" width="171.78" height="55.27" viewBox="0 0 171.78 55.27"><defs><style>.cls-1{fill:#d1daea;}.cls-2{fill:url(#radial-gradient);}.cls-3{fill:#fff;}.cls-4{fill:#e8eef8;}.cls-5{fill:#128995;}.cls-6{fill:#010101;opacity:0.2;isolation:isolate;}.cls-7{fill:#d1ecf2;}.cls-8{fill:#fcc015;}.cls-9{fill:#fde69f;}</style><radialGradient id="radial-gradient" cx="-423.8" cy="413.71" r="1" gradientTransform="matrix(207.79, 0, 0, -207.79, 88228.71, 85948.6)" gradientUnits="userSpaceOnUse"><stop offset="0" stop-color="#a11d22"/><stop offset="1" stop-color="#f0515b"/></radialGradient></defs><title>spelling</title><g id="Layer_2" data-name="Layer 2"><g id="Layer_1-2" data-name="Layer 1"><path class="cls-1" d="M145,55.27H26.81a26.81,26.81,0,0,1,0-53.62H145a26.81,26.81,0,1,1,0,53.62Z"/><path class="cls-2" d="M171.77,26.81A26.81,26.81,0,0,1,145,53.62H26.81A26.81,26.81,0,0,1,26.81,0H145A26.81,26.81,0,0,1,171.77,26.81Z"/><path class="cls-3" d="M70.23,10.22a3.87,3.87,0,0,0-3.94-3.14,3.82,3.82,0,0,0-4.1,3.82c0,2.16,1.44,3.16,4.1,4,2.26.7,3.12,1.42,3.12,2.74,0,1.66-1.38,2.68-3.12,2.68a3,3,0,0,1-3.08-2.36H61.69a4.48,4.48,0,0,0,4.6,3.82c2.58,0,4.64-1.64,4.64-4.14s-2-3.54-4.64-4.38c-1.72-.54-2.58-1.1-2.58-2.34a2.43,2.43,0,0,1,2.58-2.36,2.5,2.5,0,0,1,2.34,1.68Zm7.17,2.42a4.31,4.31,0,0,0-3.32,1.58V12.78H72.74v12.8h1.34v-5.4A4.28,4.28,0,0,0,77.4,21.8,4.64,4.64,0,0,0,82,17.2,4.58,4.58,0,0,0,77.4,12.64Zm0,7.84a3.38,3.38,0,0,1-3.28-3.28A3.31,3.31,0,0,1,77.44,14a3.15,3.15,0,0,1,3.12,3.24A3.21,3.21,0,0,1,77.44,20.48ZM92.37,17.2a4.56,4.56,0,0,0-9.12,0,4.64,4.64,0,0,0,4.56,4.6,4.56,4.56,0,0,0,4.1-2.54H90.25a3.08,3.08,0,0,1-2.44,1.22,3.23,3.23,0,0,1-3.1-2.66h7.66ZM87.81,14a3.19,3.19,0,0,1,3.1,2.58h-6.2A3.17,3.17,0,0,1,87.81,14Zm6.57,7.62h1.34V7.3H94.38Zm4.24,0H100V7.3H98.62ZM103.42,11a.94.94,0,1,0,0-1.88.94.94,0,1,0,0,1.88Zm-.68,10.58h1.41v-8.8h-1.41Zm4.22,0h1.34V16.9A2.6,2.6,0,0,1,111.18,14c1.46,0,2.26.86,2.26,2.6v5h1.34v-5c0-2.8-1.08-3.92-3.6-3.92a3.79,3.79,0,0,0-2.88,1.2V12.78H107Zm17.67-8.8v1.34a4.3,4.3,0,0,0-3.28-1.56,4.64,4.64,0,0,0-4.56,4.6,4.58,4.58,0,0,0,4.56,4.56,4.33,4.33,0,0,0,3.28-1.52v.58c0,2.74-1.38,3.68-3.16,3.68a3.17,3.17,0,0,1-2.78-1.72h-1.52a4.55,4.55,0,0,0,4.3,3c2.5,0,4.56-1.54,4.56-5v-8Zm-3.32,7.62a3.15,3.15,0,0,1-3.12-3.24,3.21,3.21,0,0,1,3.12-3.28,3.38,3.38,0,0,1,3.28,3.28A3.31,3.31,0,0,1,121.31,20.4Zm17.32-4.62c-1.95-2.62-2.74-4-2.53-5.4a2,2,0,0,1,1.62-1.84A2,2,0,0,1,140,9.72a3.28,3.28,0,0,1,.14,1.44h1.53a4.42,4.42,0,0,0-.25-2c-.66-1.68-2.45-2.24-4.3-1.86a3.35,3.35,0,0,0-2.5,3.1,5.86,5.86,0,0,0,.94,3.64,4.71,4.71,0,0,0-1.75,5.18c.86,2.36,3.86,3.62,6.88,1.56l.7.84h1.84l-1.45-1.84a9.77,9.77,0,0,0,1.67-3.06h-1.53a8.27,8.27,0,0,1-1,2C140.11,17.62,139.27,16.62,138.63,15.78Zm1.17,3.88c-2.19,1.46-4.14.6-4.7-1a3.23,3.23,0,0,1,1.22-3.56c.34.5.71,1,1.14,1.58C138.13,17.6,139,18.62,139.8,19.66Z"/><path class="cls-3" d="M62.65,31.3V45.58h1.46v-5.4h3.22a4.25,4.25,0,0,0,4.56-4.44,4.26,4.26,0,0,0-4.56-4.44Zm1.46,7.48V32.7h3.22a3,3,0,1,1,0,6.08Zm9.78,6.8h1.34V40.9A2.64,2.64,0,0,1,78.11,38c1.46,0,2.26.86,2.26,2.6v5h1.34v-5c0-2.8-1.08-3.92-3.6-3.92a3.79,3.79,0,0,0-2.88,1.2V30.5H73.89Zm14.3.22a4.64,4.64,0,0,0,4.55-4.6,4.56,4.56,0,1,0-9.12,0A4.65,4.65,0,0,0,88.19,45.8Zm0-7.84a3.18,3.18,0,0,1,3.15,3.24,3.16,3.16,0,1,1-6.32,0A3.19,3.19,0,0,1,88.19,38Zm6.66,7.62h1.34V40.9A2.6,2.6,0,0,1,99.07,38c1.46,0,2.26.86,2.26,2.6v5h1.34v-5c0-2.8-1.08-3.92-3.6-3.92a3.79,3.79,0,0,0-2.88,1.2V36.78H94.85ZM106,35a.94.94,0,1,0-1-1A1,1,0,0,0,106,35Zm-.68,10.58h1.4v-8.8h-1.4Zm12.36-5.94a4.56,4.56,0,0,0-8.84,1.56,4.64,4.64,0,0,0,4.56,4.6,4.55,4.55,0,0,0,4.3-3h-1.52a3.17,3.17,0,0,1-2.78,1.72,3.24,3.24,0,0,1-3.16-3.28A3.18,3.18,0,0,1,113.44,38a3.14,3.14,0,0,1,2.78,1.68Zm7.93-.7c-.14-1.34-1.3-2.3-3-2.3-2,0-3,1.08-3,2.42s.94,2.16,3,2.58c1.6.32,2.16.6,2.16,1.44s-.86,1.38-2.16,1.38a2.06,2.06,0,0,1-2.16-1.38h-1.22c.08,1.54,1.4,2.64,3.38,2.64,2.2,0,3.38-1.1,3.38-2.64s-.9-2.24-3.16-2.7c-1.44-.28-2-.66-2-1.32s.74-1.16,1.8-1.16,1.7.44,1.82,1Z"/><path class="cls-4" d="M31.09,5.1A21.71,21.71,0,1,0,52.8,26.81,21.72,21.72,0,0,0,31.09,5.1Z"/><path class="cls-4" d="M31.09,46.82a20,20,0,1,1,20-20A20,20,0,0,1,31.09,46.82Z"/><path class="cls-5" d="M17.74,37.14H44.45a.74.74,0,0,0,.74-.74V17.22a.74.74,0,0,0-.74-.74H17.74a.74.74,0,0,0-.74.74V36.4A.74.74,0,0,0,17.74,37.14Z"/><path class="cls-6" d="M45.19,17.22H17.74V37.14H17V16.49H45.19Z"/><path class="cls-7" d="M29.06,27.86A.56.56,0,0,1,29,26.74a38.07,38.07,0,0,0,4.18-1,.57.57,0,0,1,.34,1.08,36.37,36.37,0,0,1-4.32,1.08Z"/><path class="cls-7" d="M31,29.45a.3.3,0,0,1-.13,0,.57.57,0,0,1-.42-.68,7.56,7.56,0,0,0-.17-3.92.56.56,0,1,1,1.07-.35,8.81,8.81,0,0,1,.2,4.53A.57.57,0,0,1,31,29.45Z"/><path class="cls-7" d="M38.44,31.8a1.67,1.67,0,0,1-1.08-.38,2.21,2.21,0,0,1-.71-2,22.86,22.86,0,0,0-.51-8.82.56.56,0,0,1,1.09-.29A22.9,22.9,0,0,1,38,25.15c3.75-.14,4.5,1.49,4.66,2.23.34,1.64-1.17,3.49-3.51,4.3A1.88,1.88,0,0,1,38.44,31.8ZM38,26.29a25.72,25.72,0,0,1-.22,3.25,1.13,1.13,0,0,0,.3,1,.65.65,0,0,0,.67.07c2-.67,3-2.08,2.77-3S40,26.22,38,26.29Z"/><path class="cls-7" d="M22.05,30.48a2.32,2.32,0,0,1-2-1.16,4,4,0,0,1-.19-3.7A2.3,2.3,0,0,1,22,24.09a3.34,3.34,0,0,1,2.91,2.36,2.92,2.92,0,0,1-1.08,3.35A3,3,0,0,1,22.05,30.48ZM22,25.23c-.45,0-.82.29-1.09.87A2.88,2.88,0,0,0,21,28.71a1.22,1.22,0,0,0,1,.64,1.9,1.9,0,0,0,1.11-.45,1.75,1.75,0,0,0,.69-2.09A2.25,2.25,0,0,0,22,25.23Z"/><path class="cls-7" d="M26.52,29.5A2.33,2.33,0,0,1,25,28.9a5.06,5.06,0,0,1-1.21-4.4.56.56,0,1,1,1.1.22,4,4,0,0,0,.85,3.34,1.29,1.29,0,0,0,1.36.22.56.56,0,0,1,.35,1.07A3,3,0,0,1,26.52,29.5Z"/><path class="cls-6" d="M39.81,36.28a.74.74,0,0,1,.74-.74H43.1a.74.74,0,0,1,.74.74v.65a.74.74,0,0,1-.74.74H40.55a.74.74,0,0,1-.74-.74Z"/><path class="cls-8" d="M44.45,38.62H17.74a2.21,2.21,0,0,1-2.21-2.21V17.22A2.21,2.21,0,0,1,17.74,15H44.45a2.21,2.21,0,0,1,2.21,2.21V36.4A2.22,2.22,0,0,1,44.45,38.62ZM17.74,16.49a.74.74,0,0,0-.74.74V36.41a.74.74,0,0,0,.74.74H44.45a.74.74,0,0,0,.74-.74V17.22a.74.74,0,0,0-.74-.74Z"/><path class="cls-9" d="M39.27,35.74A.74.74,0,0,1,40,35h2.55a.74.74,0,0,1,.74.74v.65a.74.74,0,0,1-.74.74H40a.74.74,0,0,1-.74-.74Z"/></g></g></svg>